<?xml version="1.0" standalone="no"?>
<!DOCTYPE svg PUBLIC "-//W3C//DTD SVG 20010904//EN"
 "http://www.w3.org/TR/2001/REC-SVG-20010904/DTD/svg10.dtd">
<svg version="1.0" xmlns="http://www.w3.org/2000/svg"
 width="512.000000pt" height="512.000000pt" viewBox="0 0 512.000000 512.000000"
 preserveAspectRatio="xMidYMid meet">

<g transform="translate(0.000000,512.000000) scale(0.100000,-0.100000)"
fill="#000000" stroke="none">
<path d="M2370 5114 c-19 -2 -78 -9 -130 -15 -791 -90 -1522 -586 -1924 -1305
-146 -262 -252 -588 -297 -914 -18 -125 -18 -515 0 -640 105 -762 511 -1408
1147 -1826 606 -400 1377 -517 2089 -317 929 260 1646 1043 1819 1987 156 845
-103 1682 -705 2285 -399 398 -879 639 -1449 726 -100 15 -472 28 -550 19z
m398 -605 c602 -65 1154 -415 1466 -930 440 -727 366 -1638 -186 -2294 -85
-100 -275 -278 -292 -272 -5 2 -112 190 -236 418 l-228 414 182 6 c242 8 411
43 436 90 22 40 7 84 -36 107 -17 9 -45 6 -135 -15 -101 -24 -135 -27 -289
-27 -261 0 -235 -15 -352 199 -54 98 -98 180 -98 181 0 7 144 45 224 59 114
19 337 20 450 0 161 -28 348 -100 489 -188 l39 -24 -54 -33 c-80 -50 -98 -70
-98 -104 0 -37 35 -76 68 -76 31 0 119 47 205 110 124 92 117 125 -47 235
-221 147 -427 219 -719 250 l-58 7 26 31 c119 145 198 272 257 414 44 106 92
282 103 380 6 58 5 64 -19 88 -31 31 -56 31 -185 5 -243 -49 -461 -152 -653
-306 -42 -34 -79 -60 -82 -56 -3 3 -6 30 -6 61 0 83 -36 318 -72 466 -58 245
-148 466 -234 580 -31 40 -39 45 -74 45 -36 0 -43 -5 -79 -52 -61 -82 -119
-209 -175 -380 l-52 -156 -177 324 c-97 178 -177 328 -177 333 0 22 277 91
440 110 109 12 316 13 428 0z m-1221 -723 c96 -175 173 -319 171 -321 -2 -2
-42 9 -88 25 -91 31 -268 70 -320 70 -20 0 -40 -9 -57 -26 -23 -23 -25 -30
-18 -82 31 -268 161 -564 339 -772 l47 -55 -53 -8 c-195 -28 -265 -43 -356
-73 -146 -48 -240 -94 -368 -179 -170 -113 -173 -143 -29 -248 146 -105 346
-193 544 -238 100 -24 410 -37 504 -21 31 5 57 8 57 7 0 -1 -14 -32 -30 -69
-37 -81 -70 -213 -70 -282 0 -98 55 -111 229 -51 155 53 289 144 385 262 l46
57 0 -380 c0 -242 4 -390 11 -410 14 -40 58 -59 98 -42 16 6 33 19 38 28 4 10
10 194 13 410 l5 393 288 -525 c158 -289 287 -530 287 -535 0 -13 -136 -55
-260 -80 -1177 -241 -2292 615 -2356 1809 -7 123 -18 154 -60 170 -26 10 -31
43 -18 123 5 30 11 37 29 37 38 0 56 34 80 152 77 371 219 654 474 947 64 74
242 232 255 228 5 -2 87 -146 183 -321z m1046 267 c114 -257 185 -578 193
-883 l5 -175 -36 -48 -37 -49 -155 284 c-85 155 -163 299 -174 319 -18 36 -18
38 6 141 13 58 33 138 45 179 26 90 109 289 120 289 4 0 19 -26 33 -57z
m-1023 -710 c58 -18 146 -55 195 -81 l90 -48 145 -264 c80 -146 167 -303 192
-350 l47 -86 -97 33 c-53 17 -139 40 -191 49 l-95 17 -92 93 c-172 173 -294
392 -348 624 l-14 59 31 -6 c18 -3 79 -21 137 -40z m2134 -13 c-54 -232 -176
-451 -348 -625 l-93 -93 -74 -12 c-65 -11 -204 -47 -250 -65 -13 -5 -29 17
-74 100 l-56 105 22 38 c77 126 211 272 339 368 133 101 335 196 505 237 43
10 44 10 29 -53z m-1808 -885 c132 -23 246 -60 370 -121 83 -40 114 -60 123
-81 15 -33 14 -34 -99 -92 -105 -55 -221 -97 -343 -123 -136 -29 -399 -32
-527 -5 -160 34 -337 104 -464 184 l-39 25 39 25 c138 86 328 159 482 187 106
20 348 20 458 1z m510 -478 c-69 -139 -181 -251 -323 -322 -81 -41 -97 -44
-88 -12 35 129 119 262 183 292 24 11 91 43 150 71 59 28 109 50 111 48 2 -1
-13 -36 -33 -77z"/>
</g>
</svg>
